<?xml version="1.0" encoding="UTF-8" standalone="no"?>
<!-- Created with Inkscape (http://www.inkscape.org/) -->

<svg
   xmlns:dc="http://purl.org/dc/elements/1.1/"
   xmlns:cc="http://creativecommons.org/ns#"
   xmlns:rdf="http://www.w3.org/1999/02/22-rdf-syntax-ns#"
   xmlns:svg="http://www.w3.org/2000/svg"
   xmlns="http://www.w3.org/2000/svg"
   xmlns:xlink="http://www.w3.org/1999/xlink"
   xmlns:sodipodi="http://sodipodi.sourceforge.net/DTD/sodipodi-0.dtd"
   xmlns:inkscape="http://www.inkscape.org/namespaces/inkscape"
   version="1.0"
   width="96"
   height="96"
   id="svg2"
   style="display:inline"
   inkscape:version="0.48.2 r9819"
   sodipodi:docname="emblem-readonly.svg">
  <sodipodi:namedview
     pagecolor="#ffffff"
     bordercolor="#666666"
     borderopacity="1"
     objecttolerance="10"
     gridtolerance="10"
     guidetolerance="10"
     inkscape:pageopacity="0"
     inkscape:pageshadow="2"
     inkscape:window-width="640"
     inkscape:window-height="480"
     id="namedview50"
     showgrid="false"
     inkscape:zoom="2.4583333"
     inkscape:cx="48"
     inkscape:cy="48"
     inkscape:window-x="0"
     inkscape:window-y="0"
     inkscape:window-maximized="0"
     inkscape:current-layer="svg2" />
  <defs
     id="defs4">
    <linearGradient
       x1="7.1904788"
       y1="6.9551144"
       x2="7.1904788"
       y2="18.319494"
       id="linearGradient5560"
       gradientUnits="userSpaceOnUse"
       gradientTransform="scale(1.1467263,0.8720476)">
      <stop
         id="stop5562"
         style="stop-color:#323232;stop-opacity:1"
         offset="0" />
      <stop
         id="stop5564"
         style="stop-color:#787878;stop-opacity:1"
         offset="1" />
    </linearGradient>
    <linearGradient
       x1="11"
       y1="3"
       x2="11"
       y2="19"
       id="linearGradient3729"
       xlink:href="#linearGradient5560"
       gradientUnits="userSpaceOnUse"
       gradientTransform="matrix(4,0,0,4,4,-70)" />
    <clipPath
       id="clipPath3732">
      <path
         d="m -100,-74 0,96 96,0 0,-96 -96,0 z m 40,16 16,0 c 4.432,0 8,3.568 8,8 l 0,16 c 4.432,0 8,3.568 8,8 l 0,24 c 0,4.432 -3.568,8 -8,8 l -32,0 c -4.432,0 -8,-3.568 -8,-8 l 0,-24 c 0,-4.432 3.568,-8 8,-8 l 0,-16 c 0,-4.432 3.568,-8 8,-8 z m 4,8 c -2.216,0 -4,1.784 -4,4 l 0,12 16,0 0,-12 c 0,-2.216 -1.784,-4 -4,-4 l -8,0 z"
         inkscape:connector-curvature="0"
         id="path3734"
         style="opacity:0.3;color:#000000;fill:#ff0000;fill-opacity:1;fill-rule:nonzero;stroke:none;stroke-width:4;marker:none;visibility:visible;display:inline;overflow:visible;enable-background:accumulate" />
    </clipPath>
    <filter
       color-interpolation-filters="sRGB"
       id="filter3736">
      <feGaussianBlur
         id="feGaussianBlur3738"
         stdDeviation="0.84" />
    </filter>
    <clipPath
       id="clipPath3266">
      <path
         d="M 0,0 0,96 96,96 96,0 0,0 z m 12,6 72,0 c 3.324,0 6,2.676 6,6 l 0,72 c 0,3.324 -2.676,6 -6,6 L 12,90 C 8.676,90 6,87.324 6,84 L 6,12 C 6,8.676 8.676,6 12,6 z"
         inkscape:connector-curvature="0"
         id="path3268"
         style="opacity:0.3;color:#000000;fill:#ff0000;fill-opacity:1;fill-rule:nonzero;stroke:none;stroke-width:4;marker:none;visibility:visible;display:inline;overflow:visible;enable-background:accumulate" />
    </clipPath>
    <linearGradient
       x1="32.251034"
       y1="6.1317081"
       x2="32.251034"
       y2="90.238609"
       id="linearGradient3101"
       xlink:href="#ButtonShadow-0"
       gradientUnits="userSpaceOnUse"
       gradientTransform="matrix(1.0238095,0,0,1.0119048,-1.1428571,-98.071429)" />
    <linearGradient
       x1="45.447727"
       y1="92.539597"
       x2="45.447727"
       y2="7.0165396"
       id="ButtonShadow-0"
       gradientUnits="userSpaceOnUse"
       gradientTransform="matrix(1.0058652,0,0,0.994169,100,0)">
      <stop
         id="stop3750-8"
         style="stop-color:#000000;stop-opacity:1"
         offset="0" />
      <stop
         id="stop3752-5"
         style="stop-color:#000000;stop-opacity:0.58823532"
         offset="1" />
    </linearGradient>
    <linearGradient
       x1="32.251034"
       y1="6.1317081"
       x2="32.251034"
       y2="90.238609"
       id="linearGradient3780"
       xlink:href="#ButtonShadow-0"
       gradientUnits="userSpaceOnUse"
       gradientTransform="matrix(1.0238095,0,0,1.0119048,-1.1428571,-98.071429)" />
    <linearGradient
       x1="32.251034"
       y1="6.1317081"
       x2="32.251034"
       y2="90.238609"
       id="linearGradient3772"
       xlink:href="#ButtonShadow-0"
       gradientUnits="userSpaceOnUse"
       gradientTransform="matrix(1.0238095,0,0,1.0119048,-1.1428571,-98.071429)" />
    <linearGradient
       x1="32.251034"
       y1="6.1317081"
       x2="32.251034"
       y2="90.238609"
       id="linearGradient3725-9"
       xlink:href="#ButtonShadow-0"
       gradientUnits="userSpaceOnUse"
       gradientTransform="matrix(1.0238095,0,0,1.0119048,-1.1428571,-98.071429)" />
    <linearGradient
       x1="48"
       y1="90"
       x2="48"
       y2="5.9877172"
       id="linearGradient3052"
       xlink:href="#ButtonColor-6"
       gradientUnits="userSpaceOnUse" />
    <linearGradient
       x1="10.31979"
       y1="21"
       x2="10.31979"
       y2="0.99929649"
       id="ButtonColor-6"
       gradientUnits="userSpaceOnUse">
      <stop
         id="stop3189-4"
         style="stop-color:#c8c8c8;stop-opacity:1"
         offset="0" />
      <stop
         id="stop3191-0"
         style="stop-color:#e6e6e6;stop-opacity:1"
         offset="1" />
    </linearGradient>
    <linearGradient
       x1="36.357143"
       y1="6"
       x2="36.357143"
       y2="63.893143"
       id="linearGradient3188"
       xlink:href="#linearGradient3737-1"
       gradientUnits="userSpaceOnUse" />
    <linearGradient
       id="linearGradient3737-1">
      <stop
         id="stop3739"
         style="stop-color:#ffffff;stop-opacity:1"
         offset="0" />
      <stop
         id="stop3741"
         style="stop-color:#ffffff;stop-opacity:0"
         offset="1" />
    </linearGradient>
    <radialGradient
       cx="48"
       cy="90.171875"
       r="42"
       fx="48"
       fy="90.171875"
       id="radialGradient3619"
       xlink:href="#linearGradient3737-1"
       gradientUnits="userSpaceOnUse"
       gradientTransform="matrix(1.1573129,0,0,0.99590774,-7.551021,0.1971319)" />
    <linearGradient
       x1="32.251034"
       y1="6.1317081"
       x2="32.251034"
       y2="90.238609"
       id="linearGradient4256"
       xlink:href="#ButtonShadow-0"
       gradientUnits="userSpaceOnUse"
       gradientTransform="translate(0,-97)" />
  </defs>
  <metadata
     id="metadata7">
    <rdf:RDF>
      <cc:Work
         rdf:about="">
        <dc:format>image/svg+xml</dc:format>
        <dc:type
           rdf:resource="http://purl.org/dc/dcmitype/StillImage" />
        <dc:title></dc:title>
      </cc:Work>
    </rdf:RDF>
  </metadata>
  <g
     transform="translate(0,74)"
     id="layer1">
    <path
       d="m -60,-58 c -4.432,0 -8,3.568 -8,8 l 0,16 c -4.432,0 -8,3.568 -8,8 l 0,24 c 0,4.432 3.568,8 8,8 l 32,0 c 4.432,0 8,-3.568 8,-8 l 0,-24 c 0,-4.432 -3.568,-8 -8,-8 l 0,-16 c 0,-4.432 -3.568,-8 -8,-8 l -16,0 z m 4,8 8,0 c 2.216,0 4,1.784 4,4 l 0,12 -16,0 0,-12 c 0,-2.216 1.784,-4 4,-4 z"
       inkscape:connector-curvature="0"
       transform="translate(100,0)"
       clip-path="url(#clipPath3732)"
       id="path3725"
       style="opacity:0.2;color:#000000;fill:none;stroke:#ffffff;stroke-width:4;stroke-miterlimit:4;stroke-dasharray:none;marker:none;visibility:visible;display:inline;overflow:visible;filter:url(#filter3736);enable-background:accumulate" />
    <path
       d="m 40,-58 c -4.432,0 -8,3.568 -8,8 l 0,16 c -4.432,0 -8,3.568 -8,8 l 0,24 c 0,4.432 3.568,8 8,8 l 32,0 c 4.432,0 8,-3.568 8,-8 l 0,-24 c 0,-4.432 -3.568,-8 -8,-8 l 0,-16 c 0,-4.432 -3.568,-8 -8,-8 l -16,0 z m 4,8 8,0 c 2.216,0 4,1.784 4,4 l 0,12 -16,0 0,-12 c 0,-2.216 1.784,-4 4,-4 z"
       inkscape:connector-curvature="0"
       id="rect2941"
       style="color:#000000;fill:url(#linearGradient3729);fill-opacity:1;stroke:none;stroke-width:1;marker:none;visibility:visible;display:inline;overflow:visible;enable-background:accumulate" />
    <path
       d="m 40,16 c -4.432,0 -8,3.568 -8,8 l 0,16 c -4.432,0 -8,3.568 -8,8 l 0,24 c 0,4.432 3.568,8 8,8 l 32,0 c 4.432,0 8,-3.568 8,-8 l 0,-24 c 0,-4.432 -3.568,-8 -8,-8 l 0,-16 c 0,-4.432 -3.568,-8 -8,-8 l -16,0 z m 0,2.0625 16,0 c 3.329948,0 5.9375,2.607552 5.9375,5.9375 l 0,16 A 2.0535799,2.0535799 0 0 0 64,42.0625 c 3.329948,0 5.9375,2.607552 5.9375,5.9375 l 0,24 c 0,3.329948 -2.607552,5.9375 -5.9375,5.9375 l -32,0 c -3.329948,0 -5.9375,-2.607552 -5.9375,-5.9375 l 0,-24 c 0,-3.329948 2.607552,-5.9375 5.9375,-5.9375 A 2.0535799,2.0535799 0 0 0 34.0625,40 l 0,-16 c 0,-3.329948 2.607552,-5.9375 5.9375,-5.9375 z m 4,3.875 c -3.318052,0 -6.0625,2.744448 -6.0625,6.0625 l 0,12 A 2.0535799,2.0535799 0 0 0 40,42.0625 l 16,0 A 2.0535799,2.0535799 0 0 0 58.0625,40 l 0,-12 c 0,-3.318052 -2.744448,-6.0625 -6.0625,-6.0625 l -8,0 z M 44,24 l 8,0 c 2.216,0 4,1.784 4,4 l 0,12 -16,0 0,-12 c 0,-2.216 1.784,-4 4,-4 z"
       inkscape:connector-curvature="0"
       transform="translate(0,-74)"
       id="path3741"
       style="opacity:0.1;color:#000000;fill:#000000;fill-opacity:1;stroke:none;stroke-width:1;marker:none;visibility:visible;display:inline;overflow:visible;enable-background:accumulate" />
    <rect
       width="96"
       height="96"
       x="-100"
       y="-74"
       id="rect3721"
       style="opacity:0.3;color:#000000;fill:#ff0000;fill-opacity:1;fill-rule:nonzero;stroke:none;stroke-width:4;marker:none;visibility:visible;display:inline;overflow:visible;enable-background:accumulate" />
    <path
       d="m 40,16 c -4.432,0 -8,3.568 -8,8 l 0,16 c -4.432,0 -8,3.568 -8,8 l 0,24 c 0,4.432 3.568,8 8,8 l 32,0 c 4.432,0 8,-3.568 8,-8 l 0,-24 c 0,-4.432 -3.568,-8 -8,-8 l 0,-16 c 0,-4.432 -3.568,-8 -8,-8 l -16,0 z m 0,1 16,0 c 3.893843,0 7,3.106157 7,7 l 0,16 a 1.0028092,1.0028092 0 0 0 1,1 c 3.893843,0 7,3.106157 7,7 l 0,24 c 0,3.893843 -3.106157,7 -7,7 l -32,0 c -3.893843,0 -7,-3.106157 -7,-7 l 0,-24 c 0,-3.893843 3.106157,-7 7,-7 a 1.0028092,1.0028092 0 0 0 1,-1 l 0,-16 c 0,-3.893843 3.106157,-7 7,-7 z m 4,6 c -2.754157,0 -5,2.245843 -5,5 l 0,12 a 1.0028092,1.0028092 0 0 0 1,1 l 16,0 a 1.0028092,1.0028092 0 0 0 1,-1 l 0,-12 c 0,-2.754157 -2.245843,-5 -5,-5 l -8,0 z m 0,1 8,0 c 2.216,0 4,1.784 4,4 l 0,12 -16,0 0,-12 c 0,-2.216 1.784,-4 4,-4 z"
       inkscape:connector-curvature="0"
       transform="translate(0,-74)"
       id="path3956"
       style="opacity:0.2;color:#000000;fill:#000000;fill-opacity:1;stroke:none;stroke-width:1;marker:none;visibility:visible;display:inline;overflow:visible;enable-background:accumulate" />
    <path
       d="m 40,16 c -4.432,0 -8,3.568 -8,8 l 0,1 c 0,-4.432 3.568,-8 8,-8 l 16,0 c 4.432,0 8,3.568 8,8 l 0,-1 c 0,-4.432 -3.568,-8 -8,-8 l -16,0 z m -8,24 c -4.432,0 -8,3.568 -8,8 l 0,1 c 0,-4.432 3.568,-8 8,-8 l 0,-1 z m 8,0 0,1 16,0 0,-1 -16,0 z m 24,0 0,1 c 4.432,0 8,3.568 8,8 l 0,-1 c 0,-4.432 -3.568,-8 -8,-8 z"
       inkscape:connector-curvature="0"
       transform="translate(0,-74)"
       id="path3963"
       style="opacity:0.3;color:#000000;fill:#000000;fill-opacity:1;stroke:none;stroke-width:1;marker:none;visibility:visible;display:inline;overflow:visible;enable-background:accumulate" />
    <path
       d="m 44,24 c -2.216,0 -4,1.784 -4,4 l 0,1 c 0,-2.216 1.784,-4 4,-4 l 8,0 c 2.216,0 4,1.784 4,4 l 0,-1 c 0,-2.216 -1.784,-4 -4,-4 l -8,0 z m -20,48 0,1 c 0,4.432 3.568,8 8,8 l 32,0 c 4.432,0 8,-3.568 8,-8 l 0,-1 c 0,4.432 -3.568,8 -8,8 l -32,0 c -4.432,0 -8,-3.568 -8,-8 z"
       inkscape:connector-curvature="0"
       transform="translate(0,-74)"
       id="path3972"
       style="opacity:0.5;color:#000000;fill:#ffffff;fill-opacity:1;stroke:none;stroke-width:1;marker:none;visibility:visible;display:inline;overflow:visible;enable-background:accumulate" />
  </g>
</svg>
