<?xml version="1.0" encoding="UTF-8" standalone="no"?>
<!-- Created with Inkscape (http://www.inkscape.org/) -->

<svg
   xmlns:dc="http://purl.org/dc/elements/1.1/"
   xmlns:cc="http://creativecommons.org/ns#"
   xmlns:rdf="http://www.w3.org/1999/02/22-rdf-syntax-ns#"
   xmlns:svg="http://www.w3.org/2000/svg"
   xmlns="http://www.w3.org/2000/svg"
   xmlns:xlink="http://www.w3.org/1999/xlink"
   xmlns:sodipodi="http://sodipodi.sourceforge.net/DTD/sodipodi-0.dtd"
   xmlns:inkscape="http://www.inkscape.org/namespaces/inkscape"
   version="1.0"
   width="96"
   height="96"
   id="svg2"
   style="display:inline"
   inkscape:version="0.48.2 r9819"
   sodipodi:docname="emblem-downloads.svg"
   inkscape:export-filename="/Volumes/Users/romain/Downloads/faenza-icon-theme_1.3/Faenza/emblems/scalable/emblem-downloads.png"
   inkscape:export-xdpi="30"
   inkscape:export-ydpi="30">
  <sodipodi:namedview
     pagecolor="#ffffff"
     bordercolor="#666666"
     borderopacity="1"
     objecttolerance="10"
     gridtolerance="10"
     guidetolerance="10"
     inkscape:pageopacity="0"
     inkscape:pageshadow="2"
     inkscape:window-width="1282"
     inkscape:window-height="770"
     id="namedview3839"
     showgrid="false"
     inkscape:zoom="2.4583333"
     inkscape:cx="-38.316814"
     inkscape:cy="21.739788"
     inkscape:window-x="232"
     inkscape:window-y="55"
     inkscape:window-maximized="0"
     inkscape:current-layer="layer1" />
  <defs
     id="defs4">
    <linearGradient
       x1="11.998966"
       y1="0.92195445"
       x2="11.998966"
       y2="19.387045"
       id="linearGradient5520"
       gradientUnits="userSpaceOnUse"
       gradientTransform="scale(0.9219544,1.0846523)">
      <stop
         id="stop5522"
         style="stop-color:#323232;stop-opacity:1"
         offset="0" />
      <stop
         id="stop5524"
         style="stop-color:#787878;stop-opacity:1"
         offset="1" />
    </linearGradient>
    <linearGradient
       x1="26.018665"
       y1="6.9005618"
       x2="26.018665"
       y2="21.617134"
       id="linearGradient2956"
       xlink:href="#linearGradient5520"
       gradientUnits="userSpaceOnUse"
       gradientTransform="matrix(3.6988916,0,0,4.3488388,-48.240224,-88.009431)" />
    <clipPath
       id="clipPath3266">
      <path
         d="M 0,0 0,96 96,96 96,0 0,0 z m 12,6 72,0 c 3.324,0 6,2.676 6,6 l 0,72 c 0,3.324 -2.676,6 -6,6 L 12,90 C 8.676,90 6,87.324 6,84 L 6,12 C 6,8.676 8.676,6 12,6 z"
         inkscape:connector-curvature="0"
         id="path3268"
         style="opacity:0.3;color:#000000;fill:#ff0000;fill-opacity:1;fill-rule:nonzero;stroke:none;stroke-width:4;marker:none;visibility:visible;display:inline;overflow:visible;enable-background:accumulate" />
    </clipPath>
    <linearGradient
       x1="32.251034"
       y1="6.1317081"
       x2="32.251034"
       y2="90.238609"
       id="linearGradient3101"
       xlink:href="#ButtonShadow-0"
       gradientUnits="userSpaceOnUse"
       gradientTransform="matrix(1.0238095,0,0,1.0119048,-1.1428571,-98.071429)" />
    <linearGradient
       x1="45.447727"
       y1="92.539597"
       x2="45.447727"
       y2="7.0165396"
       id="ButtonShadow-0"
       gradientUnits="userSpaceOnUse"
       gradientTransform="matrix(1.0058652,0,0,0.994169,100,0)">
      <stop
         id="stop3750-8"
         style="stop-color:#000000;stop-opacity:1"
         offset="0" />
      <stop
         id="stop3752-5"
         style="stop-color:#000000;stop-opacity:0.58823532"
         offset="1" />
    </linearGradient>
    <linearGradient
       x1="32.251034"
       y1="6.1317081"
       x2="32.251034"
       y2="90.238609"
       id="linearGradient3780"
       xlink:href="#ButtonShadow-0"
       gradientUnits="userSpaceOnUse"
       gradientTransform="matrix(1.0238095,0,0,1.0119048,-1.1428571,-98.071429)" />
    <linearGradient
       x1="32.251034"
       y1="6.1317081"
       x2="32.251034"
       y2="90.238609"
       id="linearGradient3772"
       xlink:href="#ButtonShadow-0"
       gradientUnits="userSpaceOnUse"
       gradientTransform="matrix(1.0238095,0,0,1.0119048,-1.1428571,-98.071429)" />
    <linearGradient
       x1="32.251034"
       y1="6.1317081"
       x2="32.251034"
       y2="90.238609"
       id="linearGradient3725"
       xlink:href="#ButtonShadow-0"
       gradientUnits="userSpaceOnUse"
       gradientTransform="matrix(1.0238095,0,0,1.0119048,-1.1428571,-98.071429)" />
    <linearGradient
       x1="48"
       y1="90"
       x2="48"
       y2="5.9877172"
       id="linearGradient3052"
       xlink:href="#ButtonColor-6"
       gradientUnits="userSpaceOnUse" />
    <linearGradient
       x1="10.31979"
       y1="21"
       x2="10.31979"
       y2="0.99929649"
       id="ButtonColor-6"
       gradientUnits="userSpaceOnUse">
      <stop
         id="stop3189-4"
         style="stop-color:#c8c8c8;stop-opacity:1"
         offset="0" />
      <stop
         id="stop3191-0"
         style="stop-color:#e6e6e6;stop-opacity:1"
         offset="1" />
    </linearGradient>
    <linearGradient
       x1="36.357143"
       y1="6"
       x2="36.357143"
       y2="63.893143"
       id="linearGradient3188"
       xlink:href="#linearGradient3737"
       gradientUnits="userSpaceOnUse" />
    <linearGradient
       id="linearGradient3737">
      <stop
         id="stop3739"
         style="stop-color:#ffffff;stop-opacity:1"
         offset="0" />
      <stop
         id="stop3741"
         style="stop-color:#ffffff;stop-opacity:0"
         offset="1" />
    </linearGradient>
    <radialGradient
       cx="48"
       cy="90.171875"
       r="42"
       fx="48"
       fy="90.171875"
       id="radialGradient3619"
       xlink:href="#linearGradient3737"
       gradientUnits="userSpaceOnUse"
       gradientTransform="matrix(1.1573129,0,0,0.99590774,-7.551021,0.1971319)" />
    <linearGradient
       x1="32.251034"
       y1="6.1317081"
       x2="32.251034"
       y2="90.238609"
       id="linearGradient4256"
       xlink:href="#ButtonShadow-0"
       gradientUnits="userSpaceOnUse"
       gradientTransform="translate(0,-97)" />
    <filter
       color-interpolation-filters="sRGB"
       id="filter3983">
      <feGaussianBlur
         id="feGaussianBlur3985"
         stdDeviation="0.8690625" />
    </filter>
  </defs>
  <metadata
     id="metadata7">
    <rdf:RDF>
      <cc:Work
         rdf:about="">
        <dc:format>image/svg+xml</dc:format>
        <dc:type
           rdf:resource="http://purl.org/dc/dcmitype/StillImage" />
        <dc:title></dc:title>
      </cc:Work>
    </rdf:RDF>
  </metadata>
  <g
     transform="matrix(-1,0,0,-1,96.88575,22)"
     id="layer1"
     style="display:inline">
    <path
       d="m 36,-57.875 0,6 24,0 0,-6 z m 0,10 0,10 24,0 0,-10 z m 0,14 0,13.875 -14,0 26,26 26,-26 -14,0 0,-13.875 z"
       inkscape:connector-curvature="0"
       id="path3981"
       style="opacity:0.2;fill:none;stroke:#ffffff;stroke-width:4;stroke-miterlimit:4;stroke-dasharray:none;display:inline;filter:url(#filter3983)" />
    <path
       d="m 36,-57.875 0,6 24,0 0,-6 z m 0,10 0,10 24,0 0,-10 z m 0,14 0,13.875 -14,0 26,26 26,-26 -14,0 0,-13.875 z"
       inkscape:connector-curvature="0"
       id="Symbol"
       style="fill:url(#linearGradient2956);fill-opacity:1;stroke:none;display:inline" />
    <path
       d="m 36,16.125 0,6 24,0 0,-6 -24,0 z m 1.9375,1.9375 20.125,0 0,2.125 -20.125,0 0,-2.125 z M 36,26.125 l 0,10 24,0 0,-10 -24,0 z m 1.9375,1.9375 20.125,0 0,6.125 -20.125,0 0,-6.125 z M 36,40.125 36,54 22,54 48,80 74,54 l -14,0 0,-13.875 -24,0 z m 1.9375,1.9375 20.125,0 0,11.9375 A 1.9249095,1.9249095 0 0 0 60,55.9375 l 9.3125,0 L 48,77.25 26.6875,55.9375 36,55.9375 A 1.9249095,1.9249095 0 0 0 37.9375,54 l 0,-11.9375 z"
       inkscape:connector-curvature="0"
       transform="translate(0,-74)"
       id="path3953"
       style="opacity:0.1;fill:#000000;fill-opacity:1;stroke:none;display:inline" />
    <path
       d="m 36,16.125 0,6 24,0 0,-6 -24,0 z m 0.96875,0.96875 22.0625,0 0,4.0625 -22.0625,0 0,-4.0625 z M 36,26.125 l 0,10 24,0 0,-10 -24,0 z m 0.96875,0.96875 22.0625,0 0,8.0625 -22.0625,0 0,-8.0625 z M 36,40.125 36,54 22,54 48,80 74,54 l -14,0 0,-13.875 -24,0 z m 0.96875,0.96875 22.0625,0 0,12.90625 A 0.96245477,0.96245477 0 0 0 60,54.96875 l 11.65625,0 L 48,78.625 24.34375,54.96875 36,54.96875 A 0.96245477,0.96245477 0 0 0 36.96875,54 l 0,-12.90625 z"
       inkscape:connector-curvature="0"
       transform="translate(0,-74)"
       id="path3181"
       style="opacity:0.2;fill:#000000;fill-opacity:1;stroke:none;display:inline" />
    <path
       d="m 36,16.125 0,1 24,0 0,-1 -24,0 z m 0,10 0,1 24,0 0,-1 -24,0 z m 0,14 0,1 24,0 0,-1 -24,0 z M 22,54 l 1,1 13,0 0,-1 -14,0 z m 38,0 0,1 13,0 1,-1 -14,0 z"
       inkscape:connector-curvature="0"
       transform="translate(0,-74)"
       id="path3963"
       style="opacity:0.3;fill:#000000;fill-opacity:1;stroke:none;display:inline" />
    <path
       d="m 36,22.125 0,1 24,0 0,-1 -24,0 z m 0,14 0,1 24,0 0,-1 -24,0 z M 22,55 48,81 74,55 73,55 48,80 23,55 22,55 z"
       inkscape:connector-curvature="0"
       transform="translate(0,-74)"
       id="path3972"
       style="opacity:0.5;fill:#ffffff;fill-opacity:1;stroke:none;display:inline" />
  </g>
</svg>
