<?xml version="1.0" encoding="UTF-8" standalone="no"?>
<!-- Created with Inkscape (http://www.inkscape.org/) -->

<svg
   xmlns:dc="http://purl.org/dc/elements/1.1/"
   xmlns:cc="http://creativecommons.org/ns#"
   xmlns:rdf="http://www.w3.org/1999/02/22-rdf-syntax-ns#"
   xmlns:svg="http://www.w3.org/2000/svg"
   xmlns="http://www.w3.org/2000/svg"
   xmlns:xlink="http://www.w3.org/1999/xlink"
   xmlns:sodipodi="http://sodipodi.sourceforge.net/DTD/sodipodi-0.dtd"
   xmlns:inkscape="http://www.inkscape.org/namespaces/inkscape"
   version="1.0"
   width="96"
   height="96"
   id="svg2"
   style="display:inline"
   inkscape:version="0.48.2 r9819"
   sodipodi:docname="entries-sets-favorite.svg"
   inkscape:export-filename="/Volumes/Users/romain/Developpement/keepass/apps/cloud_kee_pass/resources/default_theme/images/entries-sets/entries-sets-favorite.png"
   inkscape:export-xdpi="15"
   inkscape:export-ydpi="15">
  <sodipodi:namedview
     pagecolor="#ffffff"
     bordercolor="#666666"
     borderopacity="1"
     objecttolerance="10"
     gridtolerance="10"
     guidetolerance="10"
     inkscape:pageopacity="0"
     inkscape:pageshadow="2"
     inkscape:window-width="640"
     inkscape:window-height="480"
     id="namedview49"
     showgrid="false"
     inkscape:zoom="2.4583333"
     inkscape:cx="48"
     inkscape:cy="48"
     inkscape:window-x="0"
     inkscape:window-y="0"
     inkscape:window-maximized="0"
     inkscape:current-layer="layer1" />
  <defs
     id="defs4">
    <linearGradient
       id="linearGradient3651">
      <stop
         id="stop3653"
         style="stop-color:#f3840c;stop-opacity:1"
         offset="0" />
      <stop
         id="stop3655"
         style="stop-color:#f9ba3f;stop-opacity:1"
         offset="1" />
    </linearGradient>
    <linearGradient
       x1="10.735273"
       y1="5.3143144"
       x2="12.340249"
       y2="15.422365"
       id="linearGradient2902"
       xlink:href="#linearGradient3651"
       gradientUnits="userSpaceOnUse" />
    <clipPath
       id="clipPath3266">
      <path
         d="M 0,0 0,96 96,96 96,0 0,0 z m 12,6 72,0 c 3.324,0 6,2.676 6,6 l 0,72 c 0,3.324 -2.676,6 -6,6 L 12,90 C 8.676,90 6,87.324 6,84 L 6,12 C 6,8.676 8.676,6 12,6 z"
         inkscape:connector-curvature="0"
         id="path3268"
         style="opacity:0.3;color:#000000;fill:#ff0000;fill-opacity:1;fill-rule:nonzero;stroke:none;stroke-width:4;marker:none;visibility:visible;display:inline;overflow:visible;enable-background:accumulate" />
    </clipPath>
    <linearGradient
       x1="32.251034"
       y1="6.1317081"
       x2="32.251034"
       y2="90.238609"
       id="linearGradient3101"
       xlink:href="#ButtonShadow-0"
       gradientUnits="userSpaceOnUse"
       gradientTransform="matrix(1.0238095,0,0,1.0119048,-1.1428571,-98.071429)" />
    <linearGradient
       x1="45.447727"
       y1="92.539597"
       x2="45.447727"
       y2="7.0165396"
       id="ButtonShadow-0"
       gradientUnits="userSpaceOnUse"
       gradientTransform="matrix(1.0058652,0,0,0.994169,100,0)">
      <stop
         id="stop3750-8"
         style="stop-color:#000000;stop-opacity:1"
         offset="0" />
      <stop
         id="stop3752-5"
         style="stop-color:#000000;stop-opacity:0.58823532"
         offset="1" />
    </linearGradient>
    <linearGradient
       x1="32.251034"
       y1="6.1317081"
       x2="32.251034"
       y2="90.238609"
       id="linearGradient3780"
       xlink:href="#ButtonShadow-0"
       gradientUnits="userSpaceOnUse"
       gradientTransform="matrix(1.0238095,0,0,1.0119048,-1.1428571,-98.071429)" />
    <linearGradient
       x1="32.251034"
       y1="6.1317081"
       x2="32.251034"
       y2="90.238609"
       id="linearGradient3772"
       xlink:href="#ButtonShadow-0"
       gradientUnits="userSpaceOnUse"
       gradientTransform="matrix(1.0238095,0,0,1.0119048,-1.1428571,-98.071429)" />
    <linearGradient
       x1="32.251034"
       y1="6.1317081"
       x2="32.251034"
       y2="90.238609"
       id="linearGradient3725-8"
       xlink:href="#ButtonShadow-0"
       gradientUnits="userSpaceOnUse"
       gradientTransform="matrix(1.0238095,0,0,1.0119048,-1.1428571,-98.071429)" />
    <linearGradient
       x1="48"
       y1="90"
       x2="48"
       y2="5.9877172"
       id="linearGradient3052"
       xlink:href="#ButtonColor-6"
       gradientUnits="userSpaceOnUse" />
    <linearGradient
       x1="10.31979"
       y1="21"
       x2="10.31979"
       y2="0.99929649"
       id="ButtonColor-6"
       gradientUnits="userSpaceOnUse">
      <stop
         id="stop3189-4"
         style="stop-color:#c8c8c8;stop-opacity:1"
         offset="0" />
      <stop
         id="stop3191-0"
         style="stop-color:#e6e6e6;stop-opacity:1"
         offset="1" />
    </linearGradient>
    <linearGradient
       x1="36.357143"
       y1="6"
       x2="36.357143"
       y2="63.893143"
       id="linearGradient3188"
       xlink:href="#linearGradient3737"
       gradientUnits="userSpaceOnUse" />
    <linearGradient
       id="linearGradient3737">
      <stop
         id="stop3739"
         style="stop-color:#ffffff;stop-opacity:1"
         offset="0" />
      <stop
         id="stop3741"
         style="stop-color:#ffffff;stop-opacity:0"
         offset="1" />
    </linearGradient>
    <radialGradient
       cx="48"
       cy="90.171875"
       r="42"
       fx="48"
       fy="90.171875"
       id="radialGradient3619"
       xlink:href="#linearGradient3737"
       gradientUnits="userSpaceOnUse"
       gradientTransform="matrix(1.1573129,0,0,0.99590774,-7.551021,0.1971319)" />
    <linearGradient
       x1="32.251034"
       y1="6.1317081"
       x2="32.251034"
       y2="90.238609"
       id="linearGradient4186"
       xlink:href="#ButtonShadow-0"
       gradientUnits="userSpaceOnUse"
       gradientTransform="translate(0,-97)" />
    <filter
       color-interpolation-filters="sRGB"
       id="filter3851">
      <feGaussianBlur
         id="feGaussianBlur3853"
         stdDeviation="0.15745957" />
    </filter>
    <linearGradient
       inkscape:collect="always"
       xlink:href="#linearGradient3651"
       id="linearGradient3034"
       gradientUnits="userSpaceOnUse"
       x1="10.735273"
       y1="5.3143144"
       x2="12.340249"
       y2="15.422365" />
  </defs>
  <metadata
     id="metadata7">
    <rdf:RDF>
      <cc:Work
         rdf:about="">
        <dc:format>image/svg+xml</dc:format>
        <dc:type
           rdf:resource="http://purl.org/dc/dcmitype/StillImage" />
        <dc:title></dc:title>
      </cc:Work>
    </rdf:RDF>
  </metadata>
  <g
     transform="translate(0,74)"
     id="layer1"
     style="display:inline">
    <g
       id="g3026"
       transform="matrix(1.3388301,0,0,1.3388301,-16.148864,9.216363)">
      <path
         style="opacity:0.2;color:#000000;fill:none;stroke:#ffffff;stroke-width:0.68230891;stroke-miterlimit:4;stroke-dasharray:none;marker:none;visibility:visible;display:inline;overflow:visible;filter:url(#filter3851);enable-background:accumulate"
         id="path3081"
         transform="matrix(5.7899147,0.91933388,-0.91933388,5.7899147,-5.5803626,-96.638728)"
         d="M 15,15 11.442463,13.793604 8.431842,16.040294 8.479853,12.284079 5.4127911,10.115073 9,9 l 1.115073,-3.5872089 2.169006,3.0670619 3.756215,-0.048011 -2.24669,3.010621 z"
         inkscape:connector-curvature="0" />
      <path
         style="color:#000000;fill:url(#linearGradient3034);fill-opacity:1;fill-rule:nonzero;stroke:none;stroke-width:1;marker:none;visibility:visible;display:inline;overflow:visible;enable-background:accumulate"
         id="path3649"
         transform="matrix(5.7899147,0.91933388,-0.91933388,5.7899147,-5.5803626,-96.638728)"
         d="M 15,15 11.442463,13.793604 8.431842,16.040294 8.479853,12.284079 5.4127911,10.115073 9,9 l 1.115073,-3.5872089 2.169006,3.0670619 3.756215,-0.048011 -2.24669,3.010621 z"
         inkscape:connector-curvature="0" />
      <path
         style="opacity:0.1;color:#000000;fill:#d45500;fill-opacity:1;fill-rule:nonzero;stroke:none;stroke-width:1;marker:none;visibility:visible;display:inline;overflow:visible;enable-background:accumulate"
         id="path3899"
         transform="translate(0,-74)"
         inkscape:connector-curvature="0"
         d="m 48,18 -9.75,19.75 -21.78125,3.15625 15.75,15.375 L 28.5,78 48,67.75 67.46875,78 63.75,56.28125 79.53125,40.9375 57.75,37.75 48,18 z m -0.03125,4.03125 8.15625,16.5 A 1.7702708,1.7702708 0 0 0 57.46875,39.5 l 18.09375,2.6875 -13.125,12.75 a 1.7702708,1.7702708 0 0 0 -0.28125,0.5 1.7702708,1.7702708 0 0 0 -0.1875,1.09375 L 65.1875,74.84375 48.78125,66.125 A 1.7702708,1.7702708 0 0 0 47.125,66.0625 l -16.21875,8.53125 3.0625,-18.0625 a 1.7702708,1.7702708 0 0 0 -0.5,-1.5625 L 20.3125,42.125 38.53125,39.46875 a 1.7702708,1.7702708 0 0 0 1.03125,-0.59375 1.7702708,1.7702708 0 0 0 0.25,-0.34375 l 8.15625,-16.5 z" />
      <path
         style="opacity:0.2;color:#000000;fill:#d45500;fill-opacity:1;fill-rule:nonzero;stroke:none;stroke-width:1;marker:none;visibility:visible;display:inline;overflow:visible;enable-background:accumulate"
         id="path3127"
         transform="translate(0,-74)"
         inkscape:connector-curvature="0"
         d="m 48,18 -9.75,19.75 -21.78125,3.15625 15.75,15.375 L 28.5,78 48,67.75 67.46875,78 63.75,56.28125 79.53125,40.9375 57.75,37.75 48,18 z m -0.03125,1.8125 8.96875,18.3125 a 0.81395512,0.81395512 0 0 0 0.1875,0.03125 0.81395512,0.81395512 0 0 0 0.125,0.1875 0.81395512,0.81395512 0 0 0 0.1875,0.03125 0.81395512,0.81395512 0 0 0 0.1875,0.03125 l 20.125,3 -14.6875,14.1875 A 0.81395512,0.81395512 0 0 0 63.03125,55.78125 0.81395512,0.81395512 0 0 0 63,55.96875 0.81395512,0.81395512 0 0 0 62.96875,56.125 0.81395512,0.81395512 0 0 0 62.9375,56.3125 l 3.46875,20.21875 -18.125,-9.5625 a 0.81395512,0.81395512 0 0 0 -0.1875,-0.03125 0.81395512,0.81395512 0 0 0 -0.1875,-0.03125 0.81395512,0.81395512 0 0 0 -0.1875,-0.03125 0.81395512,0.81395512 0 0 0 -0.1875,-0.03125 l -18,9.59375 L 32.875,56.375 A 0.81395512,0.81395512 0 0 0 32.90625,56.1875 0.81395512,0.81395512 0 0 0 32.9375,56 0.81395512,0.81395512 0 0 0 32.78125,55.8125 0.81395512,0.81395512 0 0 0 32.8125,55.625 L 18.1875,41.4375 38.3125,38.5 a 0.81395512,0.81395512 0 0 0 0.1875,0.03125 0.81395512,0.81395512 0 0 0 0.21875,-0.15625 0.81395512,0.81395512 0 0 0 0.1875,-0.15625 0.81395512,0.81395512 0 0 0 0.03125,-0.1875 L 47.96875,19.8125 z" />
      <path
         style="opacity:0.5;color:#000000;fill:#d45500;fill-opacity:1;fill-rule:nonzero;stroke:none;stroke-width:1;marker:none;visibility:visible;display:inline;overflow:visible;enable-background:accumulate"
         id="path3925"
         transform="translate(0,-74)"
         inkscape:connector-curvature="0"
         d="M 48,18 38.25,37.75 16.46875,40.90625 17.375,41.78125 38.25,38.75 48,19 57.75,38.75 78.625,41.8125 79.53125,40.9375 57.75,37.75 48,18 z M 32.0625,57.125 28.5,78 28.6875,77.90625 32.21875,57.28125 32.0625,57.125 z m 31.84375,0 -0.15625,0.15625 3.53125,20.625 L 67.46875,78 63.90625,57.125 z" />
      <path
         style="opacity:0.5;color:#000000;fill:#ffffff;fill-opacity:1;fill-rule:nonzero;stroke:none;stroke-width:1;marker:none;visibility:visible;display:inline;overflow:visible;enable-background:accumulate"
         id="path3934"
         transform="translate(0,-74)"
         inkscape:connector-curvature="0"
         d="m 17.375,41.78125 -0.90625,0.125 L 32.0625,57.125 32.21875,56.28125 17.375,41.78125 z M 78.625,41.8125 63.75,56.28125 63.90625,57.125 79.53125,41.9375 78.625,41.8125 z M 48,67.75 28.6875,77.90625 28.5,79 48,68.75 67.46875,79 67.28125,77.90625 48,67.75 z" />
    </g>
  </g>
</svg>
